# xmcd CD database file
#
# Track frame offsets:
#	183
#	19525
#	38835
#	57905
#	80140
#	105085
#	130238
#	149485
#	162468
#	180363
#	204523
#	220525
#	238128
#	250235
#	271163
#	284300
#	300793
#
# Disc length: 4166 seconds
#
# Revision: 0
# Processed by: cddbd v1.4PL0 Copyright (c) Steve Scherf et al.
# Submitted via: CDex 1.50beta9
#
DISCID=e2104411
DTITLE=Storyville Jazztet - From New Orleans to Queensland
DYEAR=1900
DGENRE=Jazz
TTITLE0=Wall Street Rag
TTITLE1=I Must Have That Man
TTITLE2=Give A Little Whistle
TTITLE3=Black and Tan Fantasy
TTITLE4=Baby, Won't You Please Come Home
TTITLE5=That Old Feeling
TTITLE6=Softly, as in a Morning Sunrise
TTITLE7=I Get Along Without You Very Well
TTITLE8=Milneberg Joys
TTITLE9=God Bless the Child
TTITLE10=I Can't Believe That You're In Love With Me
TTITLE11=Two Different Worlds
TTITLE12=Hong Kong Blues
TTITLE13=Blue and Brokenhearted
TTITLE14=Somebody Loves Me
TTITLE15=I Feel Like a Feather in the Breeze
TTITLE16=The Best Things in Life are Free
EXTD=
EXTT0=
EXTT1=
EXTT2=
EXTT3=
EXTT4=
EXTT5=
EXTT6=
EXTT7=
EXTT8=
EXTT9=
EXTT10=
EXTT11=
EXTT12=
EXTT13=
EXTT14=
EXTT15=
EXTT16=
PLAYORDER=
